<svg xmlns="http://www.w3.org/2000/svg" xmlns:xlink="http://www.w3.org/1999/xlink" x="0" y="0" enable-background="new 0 0 120 120" version="1.1" viewBox="0 0 120 120" xml:space="preserve"><g id="Media"><g><rect width="120" height="120" x="0" y="0" fill="#FFF"/><g><g><path fill="#EEE" d="M88.1,54.4H13.9c-2.2,0-4-1.8-4-4V28.6c0-2.2,1.8-4,4-4h74.3c2.2,0,4,1.8,4,4v21.8 C92.1,52.6,90.3,54.4,88.1,54.4z"/></g><g><path fill="#E0E0E0" d="M95.8,76H21.5c-2.2,0-4-1.8-4-4V50.2c0-2.2,1.8-4,4-4h74.3c2.2,0,4,1.8,4,4V72 C99.7,74.2,97.9,76,95.8,76z"/></g><g><path fill="#7BC876" d="M106.1,95.4H31.9c-2.2,0-4-1.8-4-4V69.6c0-2.2,1.8-4,4-4h74.3c2.2,0,4,1.8,4,4v21.8 C110.1,93.6,108.3,95.4,106.1,95.4z"/></g></g></g></g></svg>