<svg xmlns="http://www.w3.org/2000/svg" xmlns:xlink="http://www.w3.org/1999/xlink" x="0" y="0" enable-background="new 0 0 120 120" version="1.1" viewBox="0 0 120 120" xml:space="preserve"><g id="Media"><g><defs><rect id="SVGID_27_" width="120" height="120" x="0" y="0"/></defs><use fill="#FFF" overflow="visible" xlink:href="#SVGID_27_"/><clipPath id="SVGID_2_"><use overflow="visible" xlink:href="#SVGID_27_"/></clipPath><g clip-path="url(#SVGID_2_)"><g><g><g><path fill="#EEE" d="M86.9,102.4H27.7c-1.8,0-3.2-1.1-3.2-2.4V37.9c0-1.3,1.4-2.4,3.2-2.4h59.2c1.8,0,3.2,1.1,3.2,2.4V100 C90.1,101.3,88.7,102.4,86.9,102.4z"/></g></g><line x1="41.5" x2="71.6" y1="53.1" y2="53.1" fill="none" stroke="#FFF" stroke-linecap="round" stroke-miterlimit="10" stroke-width="2"/><line x1="41.5" x2="71.6" y1="64.6" y2="64.6" fill="none" stroke="#FFF" stroke-linecap="round" stroke-miterlimit="10" stroke-width="2"/></g><g><g><g><path fill="#7BC876" d="M97.5,94.9H38.3c-1.8,0-3.2-1.1-3.2-2.4V30.4c0-1.3,1.4-2.4,3.2-2.4h59.2c1.8,0,3.2,1.1,3.2,2.4v62.2 C100.7,93.9,99.3,94.9,97.5,94.9z"/></g></g><line x1="52.1" x2="82.2" y1="45.7" y2="45.7" fill="none" stroke="#FFF" stroke-linecap="round" stroke-miterlimit="10" stroke-width="2"/><line x1="52.1" x2="82.2" y1="57.1" y2="57.1" fill="none" stroke="#FFF" stroke-linecap="round" stroke-miterlimit="10" stroke-width="2"/></g></g><circle cx="97.5" cy="29.7" r="9.8" fill="#E0E0E0" clip-path="url(#SVGID_2_)"/></g></g></svg>